<svg width="24" height="24" viewBox="0 0 24 24" fill="none" xmlns="http://www.w3.org/2000/svg">
<g clip-path="url(#clip0_245_768)">
<path d="M14.7527 23.2226C14.7562 23.1894 14.758 23.1556 14.758 23.1215V15.0198H17.5275C17.9715 15.0198 18.3712 14.7274 18.4361 14.2881C18.5434 13.5615 18.4979 12.9007 18.4284 12.4309C18.3647 11.9995 17.9803 11.7156 17.5443 11.7156H14.758C14.758 9.21885 15.1735 8.85555 17.5154 8.8101C17.9648 8.8014 18.3682 8.5047 18.4334 8.06C18.543 7.3125 18.4993 6.6594 18.4305 6.19995C18.367 5.77555 17.9865 5.4989 17.5574 5.50265C13.4181 5.53875 11.0606 6.02815 11.0606 11.7156H8.91625C8.4995 11.7156 8.1295 11.9768 8.06645 12.3888C7.99855 12.8326 7.9575 13.4759 8.07085 14.2584C8.13635 14.7105 8.54295 15.0198 8.99975 15.0198H11.0606V23.247C7.85565 23.2259 5.5616 23.0994 4.06785 22.9781C2.42393 22.8445 1.15551 21.576 1.02194 19.9321C0.88904 18.2964 0.75 15.7007 0.75 12C0.75 8.2993 0.88904 5.70365 1.02194 4.06785C1.15551 2.42392 2.42392 1.15551 4.06785 1.02194C5.70365 0.889035 8.2993 0.75 12 0.75C15.7007 0.75 18.2964 0.88904 19.9321 1.02194C21.576 1.15551 22.8445 2.42393 22.9781 4.06785C23.111 5.70365 23.25 8.2993 23.25 12C23.25 15.7007 23.111 18.2964 22.9781 19.9321C22.8445 21.5761 21.576 22.8445 19.9321 22.9781C18.7369 23.0751 17.0294 23.1756 14.7527 23.2226Z" fill="#E1FFE8"/>
</g>
<defs>
<clipPath id="clip0_245_768">
<rect width="24" height="24" fill="white"/>
</clipPath>
</defs>
</svg>
