<svg width="24" height="23" viewBox="0 0 24 23" fill="none" xmlns="http://www.w3.org/2000/svg">
<g clip-path="url(#clip0_245_765)">
<path d="M18.9041 4.27313C18.6194 4.27313 18.3409 4.35752 18.1041 4.51579C17.8673 4.67405 17.6827 4.89895 17.5736 5.16201C17.4647 5.42518 17.4363 5.71467 17.4918 5.99405C17.5474 6.27334 17.6845 6.52997 17.8859 6.7313C18.0872 6.93273 18.3438 7.06987 18.6231 7.12538C18.9025 7.18099 19.192 7.15252 19.4552 7.04344C19.7183 6.93446 19.9431 6.74987 20.1014 6.51313C20.2596 6.2763 20.3441 5.99793 20.3441 5.71313C20.3441 5.3312 20.1924 4.96487 19.9223 4.69487C19.6523 4.42477 19.2861 4.27313 18.9041 4.27313ZM24.4241 7.17711C24.4008 6.1815 24.2144 5.1964 23.8721 4.26109C23.5669 3.46089 23.0921 2.7362 22.4801 2.13711C21.8859 1.52201 21.1597 1.05007 20.3561 0.757114C19.4233 0.404461 18.437 0.213747 17.4401 0.193135C16.1681 0.121094 15.7601 0.121094 12.4961 0.121094C9.23211 0.121094 8.82405 0.121094 7.55211 0.193135C6.55507 0.213747 5.56895 0.404461 4.63609 0.757114C3.83416 1.05303 3.10844 1.52456 2.51211 2.13711C1.89701 2.7313 1.42507 3.45762 1.13211 4.26109C0.779461 5.19395 0.588747 6.18007 0.568135 7.17711C0.496094 8.44905 0.496094 8.85711 0.496094 12.1211C0.496094 15.3851 0.496094 15.7931 0.568135 17.0651C0.588747 18.062 0.779461 19.0483 1.13211 19.9811C1.42507 20.7847 1.89701 21.5109 2.51211 22.1051C3.10844 22.7176 3.83416 23.1892 4.63609 23.4851C5.56895 23.8376 6.55507 24.0284 7.55211 24.0491C8.82405 24.1211 9.23211 24.1211 12.4961 24.1211C15.7601 24.1211 16.1681 24.1211 17.4401 24.0491C18.437 24.0284 19.4233 23.8376 20.3561 23.4851C21.1597 23.192 21.8859 22.7202 22.4801 22.1051C23.0948 21.5082 23.5701 20.7829 23.8721 19.9811C24.2144 19.0458 24.4008 18.0608 24.4241 17.0651C24.4241 15.7931 24.4961 15.3851 24.4961 12.1211C24.4961 8.85711 24.4961 8.44905 24.4241 7.17711ZM22.2641 16.9211C22.2554 17.6828 22.1174 18.4375 21.8561 19.1531C21.6645 19.6754 21.3568 20.1472 20.9561 20.5331C20.5668 20.9297 20.0959 21.2368 19.5761 21.4331C18.8606 21.6945 18.1059 21.8323 17.3441 21.8411C16.1441 21.9011 15.7001 21.9131 12.5441 21.9131C9.38803 21.9131 8.94405 21.9131 7.74405 21.8411C6.95313 21.8559 6.16558 21.7342 5.41609 21.4811C4.91905 21.2749 4.46977 20.9684 4.09609 20.5811C3.69783 20.1956 3.39385 19.7233 3.20813 19.2011C2.91507 18.4754 2.75262 17.7033 2.72813 16.9211C2.72813 15.7211 2.65609 15.2771 2.65609 12.1211C2.65609 8.96507 2.65609 8.52109 2.72813 7.32109C2.73344 6.54242 2.87558 5.77069 3.14813 5.04109C3.35936 4.53456 3.68364 4.08313 4.09609 3.72109C4.46069 3.30854 4.9112 2.98079 5.41609 2.76109C6.14752 2.49711 6.91844 2.35915 7.69609 2.35313C8.89609 2.35313 9.34007 2.28109 12.4961 2.28109C15.6521 2.28109 16.0961 2.28109 17.2961 2.35313C18.0578 2.36181 18.8125 2.49977 19.5281 2.76109C20.0733 2.96344 20.5628 3.29252 20.9561 3.72109C21.3494 4.08966 21.6567 4.54038 21.8561 5.04109C22.1228 5.77181 22.2609 6.54324 22.2641 7.32109C22.3241 8.52109 22.3361 8.96507 22.3361 12.1211C22.3361 15.2771 22.3241 15.7211 22.2641 16.9211ZM12.4961 5.96507C11.2791 5.96752 10.0901 6.33058 9.07926 7.00844C8.06854 7.6863 7.2814 8.64854 6.81722 9.77365C6.35313 10.8986 6.23293 12.1361 6.47181 13.3294C6.71079 14.5227 7.29803 15.6185 8.15936 16.4783C9.02079 17.338 10.1177 17.9231 11.3116 18.1597C12.5054 18.3963 13.7425 18.2736 14.8667 17.8073C15.9909 17.3411 16.9516 16.552 17.6274 15.5399C18.3034 14.5278 18.6642 13.3381 18.6642 12.1211C18.6657 11.3112 18.5071 10.5091 18.1975 9.76069C17.888 9.01232 17.4336 8.33252 16.8604 7.76038C16.2871 7.18824 15.6064 6.73518 14.8575 6.42701C14.1084 6.11895 13.306 5.96191 12.4961 5.96507ZM12.4961 16.1171C11.7058 16.1171 10.9332 15.8827 10.2761 15.4436C9.61895 15.0046 9.10671 14.3805 8.80426 13.6503C8.50181 12.9202 8.42273 12.1167 8.57691 11.3415C8.73109 10.5664 9.1116 9.85426 9.67048 9.29548C10.2293 8.73671 10.9414 8.35609 11.7165 8.20191C12.4917 8.04773 13.2952 8.12681 14.0253 8.42926C14.7555 8.73171 15.3796 9.24395 15.8186 9.90109C16.2577 10.5582 16.4921 11.3308 16.4921 12.1211C16.4921 12.6459 16.3887 13.1655 16.1879 13.6503C15.9871 14.1352 15.6927 14.5756 15.3217 14.9467C14.9506 15.3178 14.5102 15.6121 14.0253 15.8129C13.5405 16.0137 13.0209 16.1171 12.4961 16.1171Z" fill="#E1FFE8"/>
</g>
<defs>
<clipPath id="clip0_245_765">
<rect width="24" height="23" fill="white"/>
</clipPath>
</defs>
</svg>
